<?xml version="1.0" encoding="UTF-8" standalone="no"?>
<!-- Created with Inkscape (http://www.inkscape.org/) -->

<svg
   width="108.50312mm"
   height="14.828161mm"
   viewBox="0 0 108.50312 14.828161"
   version="1.1"
   id="svg1362"
   inkscape:version="1.2.2 (732a01da63, 2022-12-09, custom)"
   sodipodi:docname="logotype.svg"
   xmlns:inkscape="http://www.inkscape.org/namespaces/inkscape"
   xmlns:sodipodi="http://sodipodi.sourceforge.net/DTD/sodipodi-0.dtd"
   xmlns="http://www.w3.org/2000/svg"
   xmlns:svg="http://www.w3.org/2000/svg">
  <sodipodi:namedview
     id="namedview1364"
     pagecolor="#ffffff"
     bordercolor="#666666"
     borderopacity="1.0"
     inkscape:showpageshadow="2"
     inkscape:pageopacity="0.0"
     inkscape:pagecheckerboard="0"
     inkscape:deskcolor="#d1d1d1"
     inkscape:document-units="mm"
     showgrid="false"
     inkscape:zoom="2.0978176"
     inkscape:cx="191.38937"
     inkscape:cy="33.606353"
     inkscape:window-width="1462"
     inkscape:window-height="800"
     inkscape:window-x="74"
     inkscape:window-y="27"
     inkscape:window-maximized="1"
     inkscape:current-layer="layer1" />
  <defs
     id="defs1359" />
  <g
     inkscape:label="Layer 1"
     inkscape:groupmode="layer"
     id="layer1"
     transform="translate(-33.648058,-125.04641)">
    <g
       id="g2133"
       transform="matrix(1.0095388,0,0,1,-0.32096288,0.48393902)"
       style="stroke-width:0.995264;stroke:none;fill:#ffffff;fill-opacity:1">
      <path
         d="m 34.270359,129.00747 -0.6223,-4.445 h 0.32385 l 0.59055,4.2418 h -0.15875 l 2.3241,-4.2418 h 0.3048 l 0.61595,4.2418 h -0.15875 l 2.2987,-4.2418 h 0.3302 l -2.39395,4.445 h -0.3429 l -0.60325,-4.09575 0.0889,-0.006 -2.25425,4.1021 z"
         id="path1541"
         style="font-style:italic;font-weight:300;font-size:6.35px;line-height:1.25;font-family:'Montserrat Thin';-inkscape-font-specification:'Montserrat Thin,  Light Italic';stroke-width:0.26333;stroke:none;fill:#ffffff;fill-opacity:1" />
      <path
         d="m 41.692841,129.00782 q -0.488235,0 -0.829525,-0.17065 -0.33655,-0.17064 -0.511935,-0.47875 -0.175385,-0.30811 -0.175385,-0.71576 0,-0.40291 0.137464,-0.76316 0.137464,-0.36025 0.393432,-0.63992 0.260707,-0.27967 0.625698,-0.4361 0.369731,-0.16116 0.829525,-0.16116 0.488234,0 0.829524,0.17064 0.341291,0.17065 0.516676,0.47876 0.175385,0.30811 0.175385,0.71576 0,0.40291 -0.137464,0.76316 -0.137464,0.36025 -0.398172,0.63992 -0.260708,0.27967 -0.630439,0.44084 -0.36499,0.15642 -0.824784,0.15642 z m 0.0237,-0.22279 q 0.393431,0 0.711021,-0.13746 0.317589,-0.14221 0.540376,-0.38395 0.227527,-0.24649 0.34603,-0.56408 0.123244,-0.32233 0.123244,-0.68258 0,-0.34603 -0.146945,-0.602 -0.146944,-0.26071 -0.436093,-0.40291 -0.284408,-0.14694 -0.711021,-0.14694 -0.393431,0 -0.711021,0.1422 -0.317589,0.13746 -0.545116,0.38395 -0.222787,0.24175 -0.34603,0.56408 -0.123244,0.31759 -0.123244,0.67784 0,0.34129 0.146944,0.602 0.146945,0.2607 0.436093,0.40765 0.289149,0.1422 0.715762,0.1422 z"
         id="path1543"
         style="font-style:italic;font-weight:300;font-size:6.35px;line-height:1.25;font-family:'Montserrat Thin';-inkscape-font-specification:'Montserrat Thin,  Light Italic';stroke-width:0.26333;stroke:none;fill:#ffffff;fill-opacity:1" />
      <path
         d="m 44.586238,129.00782 0.66362,-3.3181 h 1.161334 q 0.549857,0 0.848486,0.24175 0.303369,0.237 0.303369,0.6731 0,0.42661 -0.184866,0.7205 -0.184865,0.28915 -0.526155,0.44083 -0.341291,0.15169 -0.810565,0.15169 h -1.099712 l 0.127984,-0.10903 -0.241748,1.19926 z m 2.308449,0 -0.67784,-1.204 h 0.265448 l 0.67784,1.204 z m -1.829695,-1.18504 -0.08058,-0.1185 h 1.057051 q 0.606739,0 0.943289,-0.27019 0.33655,-0.27493 0.33655,-0.81056 0,-0.34603 -0.241748,-0.5309 -0.237007,-0.18486 -0.68258,-0.18486 h -1.052311 l 0.127984,-0.11851 z"
         id="path1545"
         style="font-style:italic;font-weight:300;font-size:6.35px;line-height:1.25;font-family:'Montserrat Thin';-inkscape-font-specification:'Montserrat Thin,  Light Italic';stroke-width:0.26333;stroke:none;fill:#ffffff;fill-opacity:1" />
      <path
         d="m 48.465584,129.00782 0.66362,-3.3181 h 0.241747 l -0.620959,3.10005 h 1.910277 l -0.0474,0.21805 z"
         id="path1547"
         style="font-style:italic;font-weight:300;font-size:6.35px;line-height:1.25;font-family:'Montserrat Thin';-inkscape-font-specification:'Montserrat Thin,  Light Italic';stroke-width:0.26333;stroke:none;fill:#ffffff;fill-opacity:1" />
      <path
         d="m 51.562807,129.00782 0.66362,-3.3181 h 1.232436 q 0.497715,0 0.843745,0.16591 0.34603,0.1659 0.521416,0.46927 0.180125,0.29863 0.180125,0.70628 0,0.43135 -0.146944,0.79634 -0.142205,0.36499 -0.417133,0.63044 -0.270188,0.26071 -0.649399,0.40765 -0.379211,0.14221 -0.853225,0.14221 z m 0.284408,-0.21805 h 1.104453 q 0.554597,0 0.957509,-0.22278 0.407652,-0.22753 0.625698,-0.62096 0.222787,-0.39817 0.222787,-0.90537 0,-0.34129 -0.146945,-0.59726 -0.146944,-0.25596 -0.440833,-0.39343 -0.293888,-0.1422 -0.739462,-0.1422 h -1.004911 z"
         id="path1549"
         style="font-style:italic;font-weight:300;font-size:6.35px;line-height:1.25;font-family:'Montserrat Thin';-inkscape-font-specification:'Montserrat Thin,  Light Italic';stroke-width:0.26333;stroke:none;fill:#ffffff;fill-opacity:1" />
      <path
         d="m 61.545518,129.00782 q -0.488235,0 -0.829525,-0.17065 -0.33655,-0.17064 -0.511935,-0.47875 -0.175385,-0.30811 -0.175385,-0.71576 0,-0.40291 0.137464,-0.76316 0.137464,-0.36025 0.393432,-0.63992 0.260707,-0.27967 0.625698,-0.4361 0.369731,-0.16116 0.829525,-0.16116 0.488234,0 0.829524,0.17064 0.341291,0.17065 0.516676,0.47876 0.175385,0.30811 0.175385,0.71576 0,0.40291 -0.137464,0.76316 -0.137464,0.36025 -0.398172,0.63992 -0.260708,0.27967 -0.630439,0.44084 -0.36499,0.15642 -0.824784,0.15642 z m 0.0237,-0.22279 q 0.393431,0 0.711021,-0.13746 0.317589,-0.14221 0.540376,-0.38395 0.227526,-0.24649 0.34603,-0.56408 0.123244,-0.32233 0.123244,-0.68258 0,-0.34603 -0.146945,-0.602 -0.146944,-0.26071 -0.436093,-0.40291 -0.284408,-0.14694 -0.711021,-0.14694 -0.393431,0 -0.711021,0.1422 -0.317589,0.13746 -0.545116,0.38395 -0.222787,0.24175 -0.34603,0.56408 -0.123244,0.31759 -0.123244,0.67784 0,0.34129 0.146944,0.602 0.146945,0.2607 0.436093,0.40765 0.289149,0.1422 0.715762,0.1422 z"
         id="path1553"
         style="font-style:italic;font-weight:300;font-size:6.35px;line-height:1.25;font-family:'Montserrat Thin';-inkscape-font-specification:'Montserrat Thin,  Light Italic';stroke-width:0.26333;stroke:none;fill:#ffffff;fill-opacity:1" />
      <path
         d="m 64.984031,127.32507 h 1.796514 l -0.04266,0.21805 h -1.796513 z m -0.303369,1.68275 h -0.241747 l 0.66362,-3.3181 h 2.218386 l -0.0474,0.21805 h -1.9719 z"
         id="path1555"
         style="font-style:italic;font-weight:300;font-size:6.35px;line-height:1.25;font-family:'Montserrat Thin';-inkscape-font-specification:'Montserrat Thin,  Light Italic';stroke-width:0.26333;stroke:none;fill:#ffffff;fill-opacity:1" />
      <path
         d="m 72.967745,129.00747 -0.6223,-4.445 h 0.32385 l 0.59055,4.2418 h -0.15875 l 2.3241,-4.2418 h 0.3048 l 0.61595,4.2418 h -0.15875 l 2.298699,-4.2418 h 0.3302 l -2.393949,4.445 h -0.3429 l -0.60325,-4.09575 0.0889,-0.006 -2.25425,4.1021 z"
         id="path1559"
         style="font-style:italic;font-weight:300;font-size:6.35px;line-height:1.25;font-family:'Montserrat Thin';-inkscape-font-specification:'Montserrat Thin,  Light Italic';stroke-width:0.26333;stroke:none;fill:#ffffff;fill-opacity:1" />
      <path
         d="m 77.940499,129.00782 2.18997,-3.31814 h 0.24175 l 0.862715,3.31814 h -0.24649 l -0.805833,-3.17119 h 0.09954 l -2.071465,3.17119 z m 0.744211,-0.93382 0.123245,-0.20383 h 1.981401 l 0.04266,0.20383 z"
         id="path1561"
         style="font-style:italic;font-weight:300;font-size:6.35px;line-height:1.25;font-family:'Montserrat Thin';-inkscape-font-specification:'Montserrat Thin,  Light Italic';stroke-width:0.26333;stroke:none;fill:#ffffff;fill-opacity:1" />
      <path
         d="m 82.137471,129.00782 0.663627,-3.31814 h 1.161347 q 0.549863,0 0.848495,0.24175 0.303372,0.23701 0.303372,0.67311 0,0.42662 -0.184867,0.72051 -0.184868,0.28915 -0.526162,0.44084 -0.341294,0.15168 -0.810573,0.15168 h -1.099725 l 0.127985,-0.10902 -0.241749,1.19927 z m 2.308474,0 -0.677848,-1.20401 h 0.265451 l 0.677848,1.20401 z m -1.829715,-1.18505 -0.08058,-0.1185 h 1.057063 q 0.606745,0 0.943299,-0.2702 0.336553,-0.27493 0.336553,-0.81057 0,-0.34603 -0.24175,-0.5309 -0.237009,-0.18487 -0.682587,-0.18487 h -1.052323 l 0.127985,-0.1185 z"
         id="path1563"
         style="font-style:italic;font-weight:300;font-size:6.35px;line-height:1.25;font-family:'Montserrat Thin';-inkscape-font-specification:'Montserrat Thin,  Light Italic';stroke-width:0.26333;stroke:none;fill:#ffffff;fill-opacity:1" />
      <path
         d="m 87.187677,129.00776 q -0.24175,0 -0.474019,-0.0569 -0.22753,-0.0616 -0.412397,-0.16117 -0.180127,-0.0995 -0.284412,-0.22279 l 0.127985,-0.18487 q 0.104285,0.11851 0.270191,0.21331 0.170647,0.0948 0.374476,0.14695 0.208568,0.0522 0.417137,0.0522 0.308112,0 0.545122,-0.0853 0.24175,-0.0853 0.374475,-0.24649 0.132727,-0.16591 0.132727,-0.40292 0,-0.17539 -0.09954,-0.28441 -0.0948,-0.10903 -0.251231,-0.18013 -0.151686,-0.0711 -0.341294,-0.11851 -0.184867,-0.0521 -0.374475,-0.11376 -0.184867,-0.0616 -0.341294,-0.14695 -0.151686,-0.0901 -0.25123,-0.23227 -0.0948,-0.1422 -0.0948,-0.36025 0,-0.31285 0.165907,-0.5309 0.170647,-0.21805 0.459799,-0.33182 0.289151,-0.1185 0.658886,-0.1185 0.284412,0 0.549863,0.0758 0.265451,0.0711 0.450318,0.21331 l -0.113764,0.19909 q -0.175387,-0.13273 -0.407657,-0.20383 -0.232269,-0.0711 -0.48824,-0.0711 -0.303372,0 -0.540382,0.0901 -0.232269,0.0853 -0.364995,0.25124 -0.127985,0.1659 -0.127985,0.40291 0,0.17539 0.0948,0.28915 0.0948,0.10903 0.24649,0.18487 0.156426,0.0711 0.346034,0.12325 0.189608,0.0521 0.374475,0.11376 0.184868,0.0569 0.341294,0.14695 0.156427,0.0853 0.25123,0.22279 0.09954,0.13746 0.09954,0.35077 0,0.31759 -0.175387,0.53564 -0.170648,0.21805 -0.469279,0.33182 -0.293892,0.10902 -0.668368,0.10902 z"
         id="path1565"
         style="font-style:italic;font-weight:300;font-size:6.35px;line-height:1.25;font-family:'Montserrat Thin';-inkscape-font-specification:'Montserrat Thin,  Light Italic';stroke-width:0.26333;stroke:none;fill:#ffffff;fill-opacity:1" />
      <path
         d="m 92.816195,125.68968 h 0.24175 l -0.663627,3.31814 h -0.24175 z m -2.882037,3.31814 h -0.24175 l 0.663626,-3.31814 h 0.24175 z m 2.564444,-1.57849 h -2.280033 l 0.04266,-0.2133 h 2.280033 z"
         id="path1567"
         style="font-style:italic;font-weight:300;font-size:6.35px;line-height:1.25;font-family:'Montserrat Thin';-inkscape-font-specification:'Montserrat Thin,  Light Italic';stroke-width:0.26333;stroke:none;fill:#ffffff;fill-opacity:1" />
      <path
         d="m 93.960482,129.00782 0.663626,-3.31814 h 0.24175 l -0.663626,3.31814 z"
         id="path1569"
         style="font-style:italic;font-weight:300;font-size:6.35px;line-height:1.25;font-family:'Montserrat Thin';-inkscape-font-specification:'Montserrat Thin,  Light Italic';stroke-width:0.26333;stroke:none;fill:#ffffff;fill-opacity:1" />
      <path
         d="m 95.768396,129.00782 0.663634,-3.31814 h 1.156607 q 0.54985,0 0.85323,0.24175 0.30337,0.23701 0.30337,0.67311 0,0.42662 -0.18486,0.72051 -0.18488,0.29389 -0.53092,0.44558 -0.34129,0.15168 -0.810567,0.15168 h -1.09972 l 0.13272,-0.11376 -0.24174,1.19927 z m 0.478754,-1.18505 -0.0853,-0.1185 h 1.05707 q 0.611487,0 0.943287,-0.2702 0.33657,-0.27493 0.33657,-0.81057 0,-0.34603 -0.24175,-0.5309 -0.23701,-0.18487 -0.68259,-0.18487 H 96.52686 l 0.12797,-0.12324 z"
         id="path1571"
         style="font-style:italic;font-weight:300;font-size:6.35px;line-height:1.25;font-family:'Montserrat Thin';-inkscape-font-specification:'Montserrat Thin,  Light Italic';stroke-width:0.26333;stroke:none;fill:#ffffff;fill-opacity:1" />
      <path
         d="m 100.81861,129.00776 q -0.24175,0 -0.47402,-0.0569 -0.22753,-0.0616 -0.412403,-0.16117 -0.18014,-0.0995 -0.28441,-0.22279 l 0.12798,-0.18487 q 0.10429,0.11851 0.270203,0.21331 0.17064,0.0948 0.37447,0.14695 0.20857,0.0522 0.41714,0.0522 0.30811,0 0.54512,-0.0853 0.24175,-0.0853 0.37448,-0.24649 0.13272,-0.16591 0.13272,-0.40292 0,-0.17539 -0.0995,-0.28441 -0.0948,-0.10903 -0.25123,-0.18013 -0.15169,-0.0711 -0.3413,-0.11851 -0.18486,-0.0521 -0.37447,-0.11376 -0.18488,-0.0616 -0.34131,-0.14695 -0.15168,-0.0901 -0.25123,-0.23227 -0.0948,-0.1422 -0.0948,-0.36025 0,-0.31285 0.16591,-0.5309 0.17064,-0.21805 0.4598,-0.33182 0.28915,-0.1185 0.65888,-0.1185 0.28441,0 0.54986,0.0758 0.26546,0.0711 0.45032,0.21331 l -0.11376,0.19909 q -0.17539,-0.13273 -0.40766,-0.20383 -0.23227,-0.0711 -0.48824,-0.0711 -0.30337,0 -0.54038,0.0901 -0.23227,0.0853 -0.365,0.25124 -0.12798,0.1659 -0.12798,0.40291 0,0.17539 0.0948,0.28915 0.0948,0.10903 0.24649,0.18487 0.15643,0.0711 0.34604,0.12325 0.18961,0.0521 0.37447,0.11376 0.18487,0.0569 0.3413,0.14695 0.15642,0.0853 0.25123,0.22279 0.0995,0.13746 0.0995,0.35077 0,0.31759 -0.17539,0.53564 -0.17064,0.21805 -0.46928,0.33182 -0.29389,0.10902 -0.66836,0.10902 z"
         id="path1573"
         style="font-style:italic;font-weight:300;font-size:6.35px;line-height:1.25;font-family:'Montserrat Thin';-inkscape-font-specification:'Montserrat Thin,  Light Italic';stroke-width:0.26333;stroke:none;fill:#ffffff;fill-opacity:1" />
    </g>
    <path
       d="m 36.594459,137.51237 q -0.7874,0 -1.4605,-0.3556 -0.6731,-0.3683 -1.0795,-1.0541 -0.4064,-0.6858 -0.4064,-1.651 0,-0.8636 0.2794,-1.5875 0.2921,-0.7239 0.8128,-1.2573 0.5207,-0.5334 1.2065,-0.8255 0.6858,-0.3048 1.4732,-0.3048 0.8509,0 1.4605,0.3175 0.6096,0.3175 0.9017,0.9906 0.3048,0.6604 0.2159,1.7145 -0.0635,1.2065 -0.4953,2.1209 -0.4318,0.9017 -1.1684,1.397 -0.7239,0.4953 -1.7399,0.4953 z m 0.6096,-1.6383 q 0.5842,0 1.0287,-0.2794 0.4572,-0.2921 0.7112,-0.7874 0.2667,-0.508 0.2667,-1.1811 0,-0.6985 -0.4191,-1.1049 -0.4064,-0.4064 -1.143,-0.4064 -0.5715,0 -1.0287,0.2921 -0.4572,0.2794 -0.7239,0.7874 -0.254,0.4953 -0.254,1.1684 0,0.6985 0.4064,1.1049 0.4191,0.4064 1.1557,0.4064 z m 0.762,4.0005 0.762,-3.8481 0.5334,-1.9939 0.3429,-1.9304 0.3048,-1.524 h 1.8923 l -1.8542,9.2964 z"
       id="path1986"
       style="font-style:italic;font-weight:bold;font-size:12.7px;line-height:1.25;font-family:'Montserrat Thin';-inkscape-font-specification:'Montserrat Thin,  Bold Italic';letter-spacing:1.5875px;stroke-width:0.264583;stroke:none;fill:#ffffff;fill-opacity:1" />
    <path
       d="m 46.779841,137.51237 q -0.8382,0 -1.4478,-0.3556 -0.6096,-0.3683 -0.8636,-1.0668 -0.254,-0.6985 -0.0508,-1.7272 l 0.7493,-3.7846 h 1.9812 l -0.7239,3.6576 q -0.1524,0.7493 0.1143,1.1557 0.2794,0.4064 0.9779,0.4064 0.7366,0 1.2319,-0.4318 0.508,-0.4318 0.6731,-1.3208 l 0.6985,-3.4671 h 1.9812 l -1.3589,6.8326 h -1.8796 l 0.381,-1.9304 0.2794,0.5842 q -0.4826,0.7493 -1.2065,1.1049 -0.7239,0.3429 -1.5367,0.3429 z"
       id="path1988"
       style="font-style:italic;font-weight:bold;font-size:12.7px;line-height:1.25;font-family:'Montserrat Thin';-inkscape-font-specification:'Montserrat Thin,  Bold Italic';letter-spacing:1.5875px;stroke-width:0.264583;stroke:none;fill:#ffffff;fill-opacity:1" />
    <path
       d="m 57.25732,137.51237 q -0.7874,0 -1.4605,-0.3556 -0.6731,-0.3683 -1.0795,-1.0541 -0.4064,-0.6858 -0.4064,-1.651 0,-0.8636 0.2794,-1.5875 0.2921,-0.7239 0.8128,-1.2573 0.5207,-0.5334 1.2065,-0.8255 0.6858,-0.3048 1.4732,-0.3048 0.8509,0 1.4605,0.3175 0.6096,0.3175 0.9017,0.9906 0.3048,0.6604 0.2159,1.7145 -0.0635,1.2065 -0.4953,2.1209 -0.4318,0.9017 -1.1684,1.397 -0.7239,0.4953 -1.7399,0.4953 z m 0.6096,-1.6383 q 0.5842,0 1.0287,-0.2794 0.4572,-0.2921 0.7112,-0.7874 0.2667,-0.508 0.2667,-1.1811 0,-0.6985 -0.4191,-1.1049 -0.4064,-0.4064 -1.143,-0.4064 -0.5715,0 -1.0287,0.2921 -0.4572,0.2794 -0.7239,0.7874 -0.254,0.4953 -0.254,1.1684 0,0.6985 0.4064,1.1049 0.4191,0.4064 1.1557,0.4064 z m 1.3589,1.5367 0.2667,-1.3589 0.4445,-2.032 0.2667,-2.032 0.2794,-1.4097 h 1.9812 l -1.3589,6.8326 z"
       id="path1990"
       style="font-style:italic;font-weight:bold;font-size:12.7px;line-height:1.25;font-family:'Montserrat Thin';-inkscape-font-specification:'Montserrat Thin,  Bold Italic';letter-spacing:1.5875px;stroke-width:0.264583;stroke:none;fill:#ffffff;fill-opacity:1" />
    <path
       d="m 64.521703,137.41077 1.3589,-6.8326 h 1.8796 l -0.3937,1.9431 -0.1778,-0.5588 q 0.4572,-0.8255 1.1938,-1.1557 0.7366,-0.3302 1.7653,-0.3302 l -0.3556,1.8288 q -0.127,-0.0127 -0.2413,-0.0127 -0.1016,-0.0127 -0.2159,-0.0127 -0.8763,0 -1.4351,0.4318 -0.5461,0.4318 -0.7366,1.397 l -0.6604,3.302 z"
       id="path1992"
       style="font-style:italic;font-weight:bold;font-size:12.7px;line-height:1.25;font-family:'Montserrat Thin';-inkscape-font-specification:'Montserrat Thin,  Bold Italic';letter-spacing:1.5875px;stroke-width:0.264583;stroke:none;fill:#ffffff;fill-opacity:1" />
    <path
       d="m 74.554693,137.51237 c -0.491067,0 -0.910167,-0.0974 -1.2573,-0.2921 -0.347133,-0.2032 -0.5969,-0.49107 -0.7493,-0.8636 -0.143933,-0.381 -0.1651,-0.82973 -0.0635,-1.3462 l 0.96964,-4.53347 h 1.9812 l -0.96964,4.52077 c -0.0508,0.28787 -0.02117,0.51647 0.0889,0.6858 0.110067,0.16933 0.313267,0.254 0.6096,0.254 0.135467,0 0.270933,-0.0212 0.4064,-0.0635 0.143933,-0.0423 0.275167,-0.1016 0.3937,-0.1778 l 0.2921,1.4097 c -0.245533,0.1524 -0.516467,0.25823 -0.8128,0.3175 -0.296333,0.0593 -0.592667,0.0889 -0.889,0.0889 z m -2.5781,-5.2578 0.3048,-1.524 h 4.7371 l -0.3048,1.524 z"
       id="path1994"
       style="font-style:italic;font-weight:bold;font-size:12.7px;line-height:1.25;font-family:'Montserrat Thin';-inkscape-font-specification:'Montserrat Thin,  Bold Italic';letter-spacing:1.5875px;stroke-width:0.264583;stroke:none;fill:#ffffff;fill-opacity:1"
       sodipodi:nodetypes="sccccccsscccssccccc" />
    <path
       d="m 82.30408,137.51237 q -1.0668,0 -1.8542,-0.381 -0.7747,-0.381 -1.2065,-1.0668 -0.4318,-0.6858 -0.4318,-1.6129 0,-1.143 0.508,-2.032 0.5207,-0.9017 1.4224,-1.4224 0.9144,-0.5207 2.0955,-0.5207 1.0033,0 1.7272,0.381 0.7239,0.3683 1.1176,1.0414 0.4064,0.6604 0.4064,1.5875 0,0.2667 -0.0381,0.5334 -0.0254,0.2667 -0.0762,0.508 h -5.6515 l 0.2032,-1.1557 h 4.5212 l -0.8128,0.3556 q 0.1016,-0.5715 -0.0635,-0.9525 -0.1651,-0.3937 -0.5334,-0.5969 -0.3683,-0.2159 -0.889,-0.2159 -0.6477,0 -1.1049,0.3175 -0.4445,0.3048 -0.6731,0.8509 -0.2286,0.5461 -0.2286,1.2319 0,0.7874 0.4318,1.1811 0.4445,0.381 1.3335,0.381 0.5207,0 1.0033,-0.1651 0.4826,-0.1651 0.8255,-0.4699 l 0.8255,1.3081 q -0.5969,0.4699 -1.3462,0.6985 -0.7366,0.2159 -1.5113,0.2159 z"
       id="path1996"
       style="font-style:italic;font-weight:bold;font-size:12.7px;line-height:1.25;font-family:'Montserrat Thin';-inkscape-font-specification:'Montserrat Thin,  Bold Italic';letter-spacing:1.5875px;stroke-width:0.264583;stroke:none;fill:#ffffff;fill-opacity:1" />
    <path
       d="m 88.23496,137.41077 1.3589,-6.8326 h 1.8796 l -0.3937,1.9431 -0.1778,-0.5588 q 0.4572,-0.8255 1.1938,-1.1557 0.7366,-0.3302 1.7653,-0.3302 l -0.3556,1.8288 q -0.127,-0.0127 -0.2413,-0.0127 -0.1016,-0.0127 -0.2159,-0.0127 -0.8763,0 -1.4351,0.4318 -0.5461,0.4318 -0.7366,1.397 l -0.6604,3.302 z"
       id="path1998"
       style="font-style:italic;font-weight:bold;font-size:12.7px;line-height:1.25;font-family:'Montserrat Thin';-inkscape-font-specification:'Montserrat Thin,  Bold Italic';letter-spacing:1.5875px;stroke-width:0.264583;stroke:none;fill:#ffffff;fill-opacity:1" />
    <path
       d="m 97.785332,137.51237 q -0.9017,0 -1.7018,-0.2032 -0.7874,-0.2032 -1.2192,-0.508 l 0.762,-1.4351 q 0.4445,0.2921 1.0795,0.4699 0.6477,0.1778 1.2954,0.1778 0.6985,0 1.016,-0.1778 0.3175,-0.1778 0.3175,-0.4826 0,-0.2413 -0.2667,-0.3556 -0.2667,-0.127 -0.6731,-0.2032 -0.4064,-0.0762 -0.8763,-0.1778 -0.4572,-0.1016 -0.8763,-0.2794 -0.4064,-0.1905 -0.6731,-0.5334 -0.254,-0.3556 -0.254,-0.9271 0,-0.7747 0.4318,-1.3081 0.4445,-0.5334 1.2192,-0.8128 0.7874,-0.2794 1.778,-0.2794 0.7112,0 1.384298,0.1524 0.6731,0.1524 1.143,0.4191 l -0.7112,1.4478 q -0.4826,-0.3048 -1.015998,-0.4064 -0.5207,-0.1143 -1.0033,-0.1143 -0.6985,0 -1.016,0.2032 -0.3048,0.1905 -0.3048,0.4699 0,0.2413 0.254,0.381 0.2667,0.127 0.6731,0.2159 0.4064,0.0762 0.8763,0.1778 0.4699,0.0889 0.876298,0.2794 0.4064,0.1778 0.6604,0.5207 0.2667,0.3302 0.2667,0.9017 0,0.7747 -0.4572,1.3208 -0.4445,0.5334 -1.219198,0.8001 -0.7747,0.2667 -1.7653,0.2667 z"
       id="path2000"
       style="font-style:italic;font-weight:bold;font-size:12.7px;line-height:1.25;font-family:'Montserrat Thin';-inkscape-font-specification:'Montserrat Thin,  Bold Italic';letter-spacing:1.5875px;stroke-width:0.264583;stroke:none;fill:#ffffff;fill-opacity:1" />
    <path
       d="m 103.62731,137.41077 2.32961,-11.30082 h 1.9812 l -1.25011,5.85252 -0.5334,1.9939 -0.3048,1.7526 -0.3429,1.7018 z m 4.3688,0.1016 c -0.52493,0 -0.98637,-0.0931 -1.3843,-0.2794 -0.38947,-0.18627 -0.69427,-0.4699 -0.9144,-0.8509 -0.21167,-0.38947 -0.3175,-0.8763 -0.3175,-1.4605 0,-0.61807 0.0762,-1.19803 0.2286,-1.7399 0.1524,-0.54187 0.37677,-1.01177 0.6731,-1.4097 0.29633,-0.4064 0.65617,-0.7239 1.0795,-0.9525 0.4318,-0.2286 0.91863,-0.3429 1.4605,-0.3429 0.5334,0 1.02447,0.12277 1.4732,0.3683 0.44873,0.23707 0.80857,0.5842 1.0795,1.0414 0.27093,0.44873 0.4064,0.99907 0.4064,1.651 0,0.56727 -0.0974,1.09643 -0.2921,1.5875 -0.19473,0.4826 -0.46567,0.9017 -0.8128,1.2573 -0.33867,0.3556 -0.7366,0.635 -1.1938,0.8382 -0.4572,0.19473 -0.9525,0.2921 -1.4859,0.2921 z m -0.2286,-1.6383 c 0.39793,0 0.74507,-0.0931 1.0414,-0.2794 0.29633,-0.19473 0.52917,-0.4572 0.6985,-0.7874 0.1778,-0.33867 0.2667,-0.73237 0.2667,-1.1811 0,-0.46567 -0.13547,-0.83397 -0.4064,-1.1049 -0.27093,-0.27093 -0.65617,-0.4064 -1.1557,-0.4064 -0.381,0 -0.7239,0.0974 -1.0287,0.2921 -0.3048,0.18627 -0.54187,0.44873 -0.7112,0.7874 -0.16933,0.3302 -0.254,0.71967 -0.254,1.1684 0,0.46567 0.13547,0.83397 0.4064,1.1049 0.27093,0.27093 0.65193,0.4064 1.143,0.4064 z"
       id="path2002"
       style="font-style:italic;font-weight:bold;font-size:12.7px;line-height:1.25;font-family:'Montserrat Thin';-inkscape-font-specification:'Montserrat Thin,  Bold Italic';letter-spacing:1.5875px;stroke-width:0.264583;stroke:none;fill:#ffffff;fill-opacity:1"
       sodipodi:nodetypes="ccccccccsccssccsccscccssccsssccsss" />
    <path
       d="m 113.97779,137.41077 1.3589,-6.8326 h 1.8796 l -0.3937,1.9431 -0.1778,-0.5588 q 0.4572,-0.8255 1.1938,-1.1557 0.7366,-0.3302 1.7653,-0.3302 l -0.3556,1.8288 q -0.127,-0.0127 -0.2413,-0.0127 -0.1016,-0.0127 -0.2159,-0.0127 -0.8763,0 -1.4351,0.4318 -0.5461,0.4318 -0.7366,1.397 l -0.6604,3.302 z"
       id="path2004"
       style="font-style:italic;font-weight:bold;font-size:12.7px;line-height:1.25;font-family:'Montserrat Thin';-inkscape-font-specification:'Montserrat Thin,  Bold Italic';letter-spacing:1.5875px;stroke-width:0.264583;stroke:none;fill:#ffffff;fill-opacity:1" />
    <path
       d="m 120.99302,137.41077 1.3589,-6.8326 h 1.9685 l -1.3589,6.8326 z m 2.6797,-7.7851 q -0.5207,0 -0.8382,-0.2921 -0.3175,-0.3048 -0.3175,-0.7366 0,-0.508 0.3556,-0.8382 0.3683,-0.3429 0.9525,-0.3429 0.5207,0 0.8382,0.2921 0.3302,0.2794 0.3302,0.6985 0,0.5461 -0.3683,0.889 -0.3556,0.3302 -0.9525,0.3302 z"
       id="path2006"
       style="font-style:italic;font-weight:bold;font-size:12.7px;line-height:1.25;font-family:'Montserrat Thin';-inkscape-font-specification:'Montserrat Thin,  Bold Italic';letter-spacing:1.5875px;stroke-width:0.264583;stroke:none;fill:#ffffff;fill-opacity:1" />
    <path
       d="m 130.0227,137.51237 q -1.0668,0 -1.8542,-0.381 -0.7747,-0.381 -1.2065,-1.0668 -0.4318,-0.6858 -0.4318,-1.6129 0,-1.143 0.508,-2.032 0.5207,-0.9017 1.4224,-1.4224 0.9144,-0.5207 2.0955,-0.5207 1.0033,0 1.7272,0.381 0.7239,0.3683 1.1176,1.0414 0.4064,0.6604 0.4064,1.5875 0,0.2667 -0.0381,0.5334 -0.0254,0.2667 -0.0762,0.508 h -5.6515 l 0.2032,-1.1557 h 4.5212 l -0.8128,0.3556 q 0.1016,-0.5715 -0.0635,-0.9525 -0.1651,-0.3937 -0.5334,-0.5969 -0.3683,-0.2159 -0.889,-0.2159 -0.6477,0 -1.1049,0.3175 -0.4445,0.3048 -0.6731,0.8509 -0.2286,0.5461 -0.2286,1.2319 0,0.7874 0.4318,1.1811 0.4445,0.381 1.3335,0.381 0.5207,0 1.0033,-0.1651 0.4826,-0.1651 0.8255,-0.4699 l 0.8255,1.3081 q -0.5969,0.4699 -1.3462,0.6985 -0.7366,0.2159 -1.5113,0.2159 z"
       id="path2008"
       style="font-style:italic;font-weight:bold;font-size:12.7px;line-height:1.25;font-family:'Montserrat Thin';-inkscape-font-specification:'Montserrat Thin,  Bold Italic';letter-spacing:1.5875px;stroke-width:0.264583;stroke:none;fill:#ffffff;fill-opacity:1" />
    <path
       d="m 136.18218,137.41077 1.4224,-7.0739 q 0.2286,-1.1176 0.9652,-1.778 0.7493,-0.6731 2.0066,-0.6731 0.4699,0 0.8763,0.1016 0.4064,0.0889 0.6985,0.2794 l -0.7747,1.4224 q -0.3429,-0.2413 -0.7874,-0.2413 -0.4572,0 -0.7112,0.254 -0.254,0.2413 -0.3683,0.7747 l -0.1397,0.635 -0.1016,0.8001 -1.0922,5.4991 z m -0.0254,-5.1562 0.3048,-1.524 h 4.7371 l -0.3048,1.524 z"
       id="path2010"
       style="font-style:italic;font-weight:bold;font-size:12.7px;line-height:1.25;font-family:'Montserrat Thin';-inkscape-font-specification:'Montserrat Thin,  Bold Italic';letter-spacing:1.5875px;stroke-width:0.264583;stroke:none;fill:#ffffff;fill-opacity:1" />
  </g>
</svg>
